<svg width="65" height="65" viewBox="0 0 65 65" fill="none" xmlns="http://www.w3.org/2000/svg">
<g style="mix-blend-mode:overlay">
<circle cx="32.5" cy="32.5" r="9.5" fill="#939393"/>
</g>
<g style="mix-blend-mode:overlay">
<rect width="4.7561" height="15.8407" transform="matrix(-0.0113737 0.999935 -0.999948 -0.0101991 65 29.4908)" fill="#939393"/>
</g>
<g style="mix-blend-mode:overlay">
<rect width="4.7522" height="15.8537" transform="matrix(1 0 0.00119139 0.999999 30.0973 0)" fill="#939393"/>
</g>
<g style="mix-blend-mode:overlay">
<rect width="4.75415" height="15.8472" transform="matrix(-0.706817 -0.707397 0.705973 -0.708239 45.3381 23.3062)" fill="#939393"/>
</g>
<g style="mix-blend-mode:overlay">
<rect width="4.75415" height="15.8471" transform="matrix(-0.706817 0.707397 -0.70766 -0.706553 23.2871 19.9164)" fill="#939393"/>
</g>
<g style="mix-blend-mode:overlay">
<rect width="4.75415" height="15.8471" transform="matrix(-0.706817 0.707397 -0.70766 -0.706553 56.5525 53.2091)" fill="#939393"/>
</g>
<g style="mix-blend-mode:overlay">
<rect width="4.75415" height="15.8472" transform="matrix(-0.706817 -0.707397 0.705973 -0.708239 12.0727 56.5989)" fill="#939393"/>
</g>
<g style="mix-blend-mode:overlay">
<rect width="4.7522" height="15.8537" transform="matrix(1 0 0.00119139 0.999999 30.0973 49.1463)" fill="#939393"/>
</g>
<g style="mix-blend-mode:overlay">
<rect width="4.7561" height="15.8407" transform="matrix(-0.0113737 0.999935 -0.999948 -0.0101991 15.8939 30.2835)" fill="#939393"/>
</g>
</svg>
